<svg width="160" height="80" viewBox="0 0 160 80" fill="none" xmlns="http://www.w3.org/2000/svg">
<path fill-rule="evenodd" clip-rule="evenodd" d="M90.9593 0.633608L91.9534 2.65004C95.0185 2.92588 97.9453 3.58861 100.514 5.02515C102.392 6.04657 104.104 7.4822 106.148 8.11762C106.176 8.31062 106.148 8.58736 106.176 8.80858L106.7 8.8632L115.674 15.933C117.36 17.5352 119.045 19.081 120.977 20.1306V20.9317L121.612 20.9873C125.587 23.7484 130.089 25.9851 135.282 25.0192C138.208 24.4393 141.025 21.9814 142.296 19.2476L146.825 9.25101C148.372 6.10301 151.548 3.12069 154.557 1.24263C155.606 0.71736 157.07 0.165686 158.257 0.855734C159.224 1.49025 159.637 2.5408 159.61 3.70059C159.472 5.4958 158.091 7.2628 156.405 7.92553C154.197 9.19639 151.74 9.8309 149.805 11.7372C148.895 13.2283 147.432 14.471 146.714 15.9894C145.665 18.1151 144.947 20.3801 143.979 22.5613H143.703L142.847 24.3565C141.659 25.9587 140.087 27.5045 138.428 28.4158L138.262 28.9128C140.472 32.282 141.217 36.2867 141.825 40.3177C141.907 42.3615 141.466 44.6537 142.211 46.4753C142.377 46.8895 142.654 47.2774 142.875 47.718V48.4098L145.636 50.591C146.354 53.3521 148.093 55.8092 147.681 58.9299C147.265 60.3118 147.238 61.9131 147.487 63.3487C147.183 63.7912 146.491 63.5426 146.022 63.5426C144.504 63.3487 142.681 62.4648 142.322 60.8079C142.074 58.5157 142.102 56.1424 141.936 53.8219L136.441 49.0161C135.088 47.4421 134.288 45.6487 132.851 44.1011L131.967 42.61L128.432 34.4632C127.812 33.5091 126.993 32.7012 126.029 32.0957C125.066 31.4902 123.983 31.1015 122.854 30.9566L115.066 30.2383C111.946 29.52 109.101 28.139 106.395 26.4276C104.242 24.8809 102.42 22.5604 100.293 20.96H99.4092C97.8343 22.6997 95.7359 23.2796 93.4154 23.0037C90.0198 22.7825 87.3971 20.7114 84.138 20.1316C83.8604 20.7388 83.7238 21.457 83.5035 22.1198C82.2873 22.2581 80.685 22.6168 79.8038 21.5126C79.0573 20.7114 78.918 19.497 79.2221 18.4474C80.1061 16.2935 82.4265 15.4095 84.6077 15.3267C86.3465 15.2439 87.9224 15.6299 89.6338 15.5752L89.8805 15.4095L89.5765 13.6699L88.3065 12.511L84.7452 12.8141L81.2103 10.2187L80.6022 9.44491V8.11944L82.0651 6.37976L82.7834 4.69469L85.2122 2.59633L86.3447 0.580806C87.1731 0.304058 87.7266 0.939485 88.3347 1.24354L89.1896 1.02233L90.1017 0H90.9302L90.9593 0.633608ZM22.336 41.0096C23.9655 41.2026 25.8982 41.5312 26.5063 43.2991L26.672 44.1275V65.225C26.5609 66.9373 26.0648 68.8145 24.2969 69.5064C23.4129 69.8368 22.4461 70.0025 21.452 70.0307H11.8278V79.2817H0.713257V41.0096H22.336ZM40.7415 63.8722L40.5485 65.6128V72.5724C40.5485 73.2698 40.838 73.9525 41.5007 74.2848C42.0533 74.4769 42.7424 74.3667 43.2122 74.0627C43.8476 73.5665 43.986 72.8219 43.986 72.0462V41.0096H54.659V54.6212L54.3695 56.5275L54.3422 74.9749C54.2038 76.4114 54.0099 77.9854 52.5742 78.7018C51.4418 79.1998 50.1445 79.31 48.7908 79.2836L34.1824 79.2553C32.8014 79.0897 31.282 79.0068 30.4545 77.7086C29.8191 76.6044 29.7362 75.2516 29.6807 73.8979V41.0096H40.7406L40.7415 63.8722ZM92.2857 41.0096C93.8861 41.147 95.5984 42.1393 96.0409 43.7406C96.4269 44.9551 96.4269 46.641 96.0409 47.8554L96.0673 55.6699L96.2894 57.162V79.2826H85.5736V59.3987L85.8513 58.4046L85.8231 49.2082C85.6865 48.4636 85.4926 47.7162 85.5472 46.8877C85.4371 46.4471 85.0775 46.0611 84.6633 45.8955C84.1107 45.6469 83.3924 45.7835 82.9227 46.1158C82.0943 46.7221 82.5085 47.9383 82.3983 48.8769L82.0943 49.373L82.1225 60.1161L82.3983 61.1102V79.2817H71.7663L71.7945 65.3633L72.0977 64.037V51.0044L71.7663 50.2023L71.739 46.8613C71.6289 46.337 71.1591 45.8672 70.6621 45.7571C70.0266 45.7571 69.3366 45.8126 68.8951 46.2814C68.5355 46.6957 68.6192 47.2755 68.6192 47.8281C68.5919 49.1263 68.7021 50.4791 68.3161 51.6097L68.3434 66.7444L68.6192 68.0689V79.2808H58.1802L58.1529 54.2334L57.9053 52.8806L57.9326 43.7953C58.0437 42.6355 59.1761 41.6414 60.2249 41.3655C60.8876 41.1716 61.5503 41.0369 62.2404 41.0087L92.2857 41.0096Z" fill="#C7C8D3"/>
<path fill-rule="evenodd" clip-rule="evenodd" d="M119.9 41.0096C121.309 41.2026 122.827 41.4766 123.545 42.8576L123.711 43.6305C123.711 45.8272 123.601 48.5865 124.015 50.368V79.2826H113.328V70.0581H110.485V79.2826H99.4256V56.4719L99.6459 55.4778V47.6069C99.2317 46.448 99.4665 45.0106 99.4374 43.7406C99.9354 42.305 101.439 41.0096 102.972 41.0096H119.9Z" fill="#C7C8D3"/>
<path fill-rule="evenodd" clip-rule="evenodd" d="M15.1278 46.0875C15.4045 46.6119 15.5147 47.1918 15.5147 47.8281L15.4874 63.1266C15.4045 63.8167 15.1005 64.5613 14.4104 64.9209C13.6922 65.3351 12.7126 65.2805 11.8287 65.2805V45.149C13.0431 45.0106 14.465 44.9287 15.1278 46.0875ZM113.466 46.5309L113.66 46.9715C113.66 49.0699 113.796 51.6598 113.328 53.212V65.2532H110.485V53.9038L110.001 52.4391V47.2755C110.001 46.6192 110.705 46.0329 111.34 45.8126C112.112 45.5632 112.996 45.839 113.466 46.5309ZM35.3932 78.2967C35.5214 78.2967 35.6443 78.2458 35.735 78.1552C35.8256 78.0645 35.8766 77.9415 35.8766 77.8133V71.7841C35.8766 71.6559 35.8256 71.5329 35.735 71.4423C35.6443 71.3516 35.5214 71.3007 35.3932 71.3007C35.2649 71.3007 35.142 71.3516 35.0513 71.4423C34.9607 71.5329 34.9098 71.6559 34.9098 71.7841V77.8133C34.9096 77.8769 34.9221 77.9398 34.9463 77.9985C34.9706 78.0572 35.0062 78.1105 35.0511 78.1554C35.096 78.2003 35.1493 78.2359 35.208 78.2602C35.2667 78.2844 35.3296 78.2969 35.3932 78.2967ZM33.4368 78.2967C33.565 78.2967 33.688 78.2458 33.7786 78.1552C33.8693 78.0645 33.9202 77.9415 33.9202 77.8133V75.5129C33.9202 75.3847 33.8693 75.2617 33.7786 75.1711C33.688 75.0804 33.565 75.0295 33.4368 75.0295C33.3086 75.0295 33.1856 75.0804 33.095 75.1711C33.0043 75.2617 32.9534 75.3847 32.9534 75.5129V77.8133C32.9534 78.0801 33.1701 78.2967 33.4368 78.2967ZM41.1693 78.2967C41.2976 78.2967 41.4205 78.2458 41.5112 78.1552C41.6018 78.0645 41.6527 77.9415 41.6527 77.8133V75.5129C41.6527 75.3847 41.6018 75.2617 41.5112 75.1711C41.4205 75.0804 41.2976 75.0295 41.1693 75.0295C41.0411 75.0295 40.9182 75.0804 40.8275 75.1711C40.7369 75.2617 40.686 75.3847 40.686 75.5129V77.8133C40.686 78.0801 40.9026 78.2967 41.1693 78.2967ZM43.3788 78.2967C43.4422 78.2967 43.505 78.2842 43.5636 78.2599C43.6222 78.2356 43.6754 78.2 43.7203 78.1551C43.7651 78.1102 43.8006 78.0569 43.8248 77.9983C43.849 77.9396 43.8614 77.8768 43.8613 77.8133V75.5129C43.8613 75.3848 43.8104 75.262 43.7198 75.1714C43.6292 75.0808 43.5064 75.0299 43.3783 75.0299C43.2502 75.0299 43.1274 75.0808 43.0368 75.1714C42.9463 75.262 42.8954 75.3848 42.8954 75.5129V77.8133C42.8953 77.8769 42.9077 77.9398 42.9319 77.9985C42.9562 78.0572 42.9918 78.1105 43.0367 78.1554C43.0816 78.2003 43.1349 78.2359 43.1936 78.2602C43.2523 78.2844 43.3153 78.2969 43.3788 78.2967ZM37.2566 78.2967C37.3849 78.2967 37.5078 78.2458 37.5985 78.1552C37.6891 78.0645 37.74 77.9415 37.74 77.8133V69.0776C37.74 68.9494 37.6891 68.8264 37.5985 68.7358C37.5078 68.6451 37.3849 68.5942 37.2566 68.5942C37.1284 68.5942 37.0055 68.6451 36.9148 68.7358C36.8242 68.8264 36.7733 68.9494 36.7733 69.0776V77.8133C36.7733 78.0801 36.9899 78.2967 37.2566 78.2967ZM39.0519 78.2967C39.1801 78.2967 39.303 78.2458 39.3937 78.1552C39.4843 78.0645 39.5353 77.9415 39.5353 77.8133V66.1226C39.5353 65.9944 39.4843 65.8714 39.3937 65.7808C39.303 65.6901 39.1801 65.6392 39.0519 65.6392C38.9237 65.6392 38.8007 65.6901 38.7101 65.7808C38.6194 65.8714 38.5685 65.9944 38.5685 66.1226V77.8133C38.5685 78.0801 38.7851 78.2967 39.0519 78.2967ZM45.5418 78.2967C45.67 78.2967 45.7929 78.2458 45.8836 78.1552C45.9742 78.0645 46.0252 77.9415 46.0252 77.8133V66.1226C46.0252 65.9944 45.9742 65.8714 45.8836 65.7808C45.7929 65.6901 45.67 65.6392 45.5418 65.6392C45.4136 65.6392 45.2906 65.6901 45.2 65.7808C45.1093 65.8714 45.0584 65.9944 45.0584 66.1226V77.8133C45.0583 77.8769 45.0707 77.9398 45.0949 77.9985C45.1192 78.0572 45.1548 78.1105 45.1997 78.1554C45.2446 78.2003 45.2979 78.2359 45.3566 78.2602C45.4153 78.2844 45.4783 78.2969 45.5418 78.2967ZM47.428 78.2967C47.5562 78.2967 47.6792 78.2458 47.7698 78.1552C47.8605 78.0645 47.9114 77.9415 47.9114 77.8133V60.4065C47.9114 60.2783 47.8605 60.1553 47.7698 60.0647C47.6792 59.974 47.5562 59.9231 47.428 59.9231C47.2998 59.9231 47.1769 59.974 47.0862 60.0647C46.9956 60.1553 46.9446 60.2783 46.9446 60.4065V77.8133C46.9449 77.9415 46.9959 78.0643 47.0865 78.1549C47.1771 78.2455 47.2999 78.2965 47.428 78.2967ZM49.2232 78.2967C49.3514 78.2967 49.4744 78.2458 49.5651 78.1552C49.6557 78.0645 49.7066 77.9415 49.7066 77.8133V59.4961C49.7066 59.3679 49.6557 59.245 49.5651 59.1543C49.4744 59.0637 49.3514 59.0127 49.2232 59.0127C49.095 59.0127 48.9721 59.0637 48.8814 59.1543C48.7908 59.245 48.7398 59.3679 48.7398 59.4961V77.8133C48.7398 78.0801 48.9565 78.2967 49.2232 78.2967ZM51.0185 78.2967C51.0819 78.2967 51.1447 78.2842 51.2033 78.2599C51.2619 78.2356 51.3151 78.2 51.3599 78.1551C51.4048 78.1102 51.4403 78.0569 51.4645 77.9983C51.4887 77.9396 51.5011 77.8768 51.5009 77.8133V58.2972C51.5009 58.1691 51.4501 58.0463 51.3595 57.9557C51.2689 57.8651 51.1461 57.8142 51.018 57.8142C50.8899 57.8142 50.7671 57.8651 50.6765 57.9557C50.5859 58.0463 50.5351 58.1691 50.5351 58.2972V77.8133C50.5351 78.0801 50.7517 78.2967 51.0185 78.2967ZM52.8137 78.2967C52.8771 78.2967 52.9399 78.2842 52.9985 78.2599C53.0571 78.2356 53.1103 78.2 53.1552 78.1551C53.2 78.1102 53.2355 78.0569 53.2597 77.9983C53.2839 77.9396 53.2963 77.8768 53.2962 77.8133V57.4797C53.2962 57.3516 53.2453 57.2288 53.1547 57.1382C53.0641 57.0476 52.9413 56.9967 52.8132 56.9967C52.6851 56.9967 52.5623 57.0476 52.4717 57.1382C52.3812 57.2288 52.3303 57.3516 52.3303 57.4797V77.8133C52.3303 78.0801 52.5469 78.2967 52.8137 78.2967ZM59.4747 78.2967C59.603 78.2967 59.7261 78.2458 59.8169 78.1552C59.9077 78.0646 59.9588 77.9416 59.959 77.8133V54.0822C59.959 53.954 59.9081 53.8311 59.8175 53.7404C59.7268 53.6498 59.6038 53.5989 59.4756 53.5989C59.3474 53.5989 59.2245 53.6498 59.1338 53.7404C59.0432 53.8311 58.9922 53.954 58.9922 54.0822V77.8133C58.9922 78.0801 59.2089 78.2967 59.4747 78.2967ZM61.3282 78.2967C61.3917 78.2969 61.4546 78.2844 61.5133 78.2602C61.572 78.2359 61.6254 78.2003 61.6703 78.1554C61.7152 78.1105 61.7508 78.0572 61.775 77.9985C61.7993 77.9398 61.8117 77.8769 61.8116 77.8133V53.6034C61.8116 53.4753 61.7607 53.3525 61.6701 53.2619C61.5796 53.1713 61.4567 53.1205 61.3287 53.1205C61.2006 53.1205 61.0777 53.1713 60.9872 53.2619C60.8966 53.3525 60.8457 53.4753 60.8457 53.6034V77.8133C60.8456 77.8768 60.858 77.9396 60.8822 77.9983C60.9064 78.0569 60.9419 78.1102 60.9867 78.1551C61.0315 78.2 61.0848 78.2356 61.1434 78.2599C61.202 78.2842 61.2648 78.2967 61.3282 78.2967ZM63.1808 78.2967C63.309 78.2967 63.4319 78.2458 63.5226 78.1552C63.6132 78.0645 63.6642 77.9415 63.6642 77.8133V53.0881C63.6642 52.9599 63.6132 52.837 63.5226 52.7463C63.4319 52.6557 63.309 52.6047 63.1808 52.6047C63.0526 52.6047 62.9296 52.6557 62.839 52.7463C62.7483 52.837 62.6974 52.9599 62.6974 53.0881V77.8133C62.6974 78.0801 62.914 78.2967 63.1808 78.2967ZM65.0333 69.5419C65.0967 69.542 65.1595 69.5296 65.218 69.5055C65.2766 69.4814 65.3299 69.4459 65.3748 69.4012C65.4197 69.3565 65.4553 69.3034 65.4797 69.2449C65.504 69.1864 65.5166 69.1237 65.5167 69.0603V52.6184C65.5167 52.4902 65.4658 52.3672 65.3752 52.2766C65.2845 52.1859 65.1616 52.135 65.0333 52.135C64.9051 52.135 64.7822 52.1859 64.6915 52.2766C64.6009 52.3672 64.5499 52.4902 64.5499 52.6184V69.0603C64.5501 69.1237 64.5627 69.1864 64.587 69.2449C64.6114 69.3034 64.647 69.3565 64.6919 69.4012C64.7368 69.4459 64.79 69.4814 64.8486 69.5055C64.9072 69.5296 64.97 69.542 65.0333 69.5419ZM66.8859 68.0962C66.9493 68.0963 67.012 68.084 67.0706 68.0599C67.1292 68.0357 67.1825 68.0003 67.2273 67.9556C67.2722 67.9108 67.3079 67.8577 67.3322 67.7992C67.3566 67.7407 67.3692 67.678 67.3693 67.6146V52.3981C67.3693 52.2699 67.3184 52.1469 67.2277 52.0563C67.1371 51.9656 67.0141 51.9147 66.8859 51.9147C66.7577 51.9147 66.6348 51.9656 66.5441 52.0563C66.4534 52.1469 66.4025 52.2699 66.4025 52.3981V67.6146C66.4026 67.678 66.4152 67.7407 66.4396 67.7992C66.4639 67.8577 66.4996 67.9108 66.5445 67.9556C66.5894 68.0003 66.6426 68.0357 66.7012 68.0599C66.7598 68.084 66.8225 68.0963 66.8859 68.0962ZM73.3294 64.0588C73.4576 64.0588 73.5805 64.0079 73.6712 63.9172C73.7619 63.8266 73.8128 63.7036 73.8128 63.5754V51.2948C73.8128 51.1665 73.7619 51.0436 73.6712 50.9529C73.5805 50.8623 73.4576 50.8114 73.3294 50.8114C73.2012 50.8114 73.0782 50.8623 72.9876 50.9529C72.8969 51.0436 72.846 51.1665 72.846 51.2948V63.5754C72.846 63.8412 73.0627 64.0588 73.3294 64.0588ZM75.182 63.5053C75.2453 63.5054 75.3081 63.4931 75.3667 63.4689C75.4252 63.4448 75.4785 63.4094 75.5234 63.3646C75.5683 63.3199 75.6039 63.2668 75.6283 63.2083C75.6526 63.1498 75.6652 63.0871 75.6654 63.0237V51.0171C75.6652 50.9537 75.6526 50.891 75.6283 50.8325C75.6039 50.774 75.5683 50.7209 75.5234 50.6762C75.4785 50.6315 75.4252 50.596 75.3667 50.5719C75.3081 50.5478 75.2453 50.5354 75.182 50.5355C75.1186 50.5354 75.0558 50.5478 74.9972 50.5719C74.9387 50.596 74.8854 50.6315 74.8405 50.6762C74.7956 50.7209 74.76 50.774 74.7356 50.8325C74.7113 50.891 74.6987 50.9537 74.6986 51.0171V63.0237C74.6987 63.0871 74.7113 63.1498 74.7356 63.2083C74.76 63.2668 74.7956 63.3199 74.8405 63.3646C74.8854 63.4094 74.9387 63.4448 74.9972 63.4689C75.0558 63.4931 75.1186 63.5054 75.182 63.5053ZM77.0345 62.6769C77.3013 62.6769 77.517 62.4621 77.517 62.1953V50.4654C77.517 50.3373 77.4661 50.2145 77.3756 50.1239C77.285 50.0334 77.1622 49.9825 77.0341 49.9825C76.906 49.9825 76.7831 50.0334 76.6926 50.1239C76.602 50.2145 76.5511 50.3373 76.5511 50.4654V62.1953C76.5512 62.2587 76.5638 62.3214 76.5882 62.3799C76.6126 62.4384 76.6482 62.4915 76.6931 62.5362C76.738 62.5809 76.7912 62.6164 76.8498 62.6405C76.9084 62.6646 76.9712 62.677 77.0345 62.6769ZM78.8862 61.8485C78.9497 61.8487 79.0127 61.8364 79.0715 61.8122C79.1302 61.788 79.1836 61.7524 79.2285 61.7074C79.2735 61.6625 79.3091 61.6091 79.3333 61.5504C79.3575 61.4916 79.3698 61.4286 79.3696 61.3651V50.1887C79.3696 50.0606 79.3187 49.9377 79.2281 49.8472C79.1376 49.7566 79.0147 49.7057 78.8866 49.7057C78.7586 49.7057 78.6357 49.7566 78.5452 49.8472C78.4546 49.9377 78.4037 50.0606 78.4037 50.1887V61.3651C78.4036 61.4285 78.416 61.4914 78.4402 61.55C78.4644 61.6086 78.4999 61.6619 78.5447 61.7068C78.5895 61.7517 78.6427 61.7874 78.7013 61.8117C78.7599 61.836 78.8228 61.8485 78.8862 61.8485ZM80.7388 61.0201C80.8021 61.0202 80.8649 61.0078 80.9235 60.9837C80.982 60.9595 81.0353 60.9241 81.0802 60.8794C81.1251 60.8347 81.1607 60.7815 81.1851 60.723C81.2094 60.6646 81.222 60.6018 81.2222 60.5385V49.9128C81.2222 49.7846 81.1712 49.6617 81.0806 49.571C80.9899 49.4804 80.867 49.4294 80.7388 49.4294C80.6105 49.4294 80.4876 49.4804 80.3969 49.571C80.3063 49.6617 80.2554 49.7846 80.2554 49.9128V60.5385C80.2555 60.6018 80.2681 60.6646 80.2924 60.723C80.3168 60.7815 80.3524 60.8347 80.3973 60.8794C80.4422 60.9241 80.4955 60.9595 80.554 60.9837C80.6126 61.0078 80.6754 61.0202 80.7388 61.0201ZM87.195 58.7187C87.2583 58.7186 87.3211 58.706 87.3795 58.6816C87.438 58.6573 87.4912 58.6216 87.5359 58.5767C87.5806 58.5318 87.616 58.4786 87.6402 58.42C87.6643 58.3614 87.6767 58.2986 87.6766 58.2353V49.0835C87.6766 48.9555 87.6257 48.8328 87.5352 48.7423C87.4448 48.6518 87.322 48.601 87.1941 48.601C87.0661 48.601 86.9434 48.6518 86.8529 48.7423C86.7624 48.8328 86.7116 48.9555 86.7116 49.0835V58.2353C86.7116 58.502 86.9282 58.7187 87.195 58.7187ZM89.1277 58.4437C89.2559 58.4437 89.3788 58.3928 89.4695 58.3022C89.5601 58.2115 89.6111 58.0886 89.6111 57.9604V48.8086C89.6111 48.6804 89.5601 48.5574 89.4695 48.4668C89.3788 48.3761 89.2559 48.3252 89.1277 48.3252C88.9995 48.3252 88.8765 48.3761 88.7858 48.4668C88.6952 48.5574 88.6442 48.6804 88.6442 48.8086V57.9604C88.6442 58.2262 88.8609 58.4437 89.1277 58.4437ZM91.0603 57.8903C91.1238 57.8903 91.1867 57.8778 91.2453 57.8535C91.304 57.8292 91.3573 57.7936 91.4022 57.7487C91.447 57.7038 91.4827 57.6505 91.5069 57.5919C91.5312 57.5332 91.5437 57.4703 91.5437 57.4069V48.5327C91.5437 48.4045 91.4928 48.2816 91.4022 48.1909C91.3115 48.1003 91.1885 48.0493 91.0603 48.0493C90.9321 48.0493 90.8092 48.1003 90.7185 48.1909C90.6279 48.2816 90.5769 48.4045 90.5769 48.5327V57.4069C90.5769 57.6736 90.7936 57.8903 91.0603 57.8903ZM92.993 57.3377C93.0565 57.3378 93.1194 57.3254 93.1781 57.3011C93.2368 57.2769 93.2902 57.2413 93.3351 57.1964C93.38 57.1515 93.4156 57.0981 93.4399 57.0394C93.4641 56.9807 93.4765 56.9178 93.4764 56.8543V48.256C93.4764 47.9893 93.2597 47.7744 92.993 47.7744C92.7263 47.7744 92.5096 47.9893 92.5096 48.256V56.8543C92.5095 56.9178 92.5219 56.9807 92.5462 57.0394C92.5704 57.0981 92.606 57.1515 92.6509 57.1964C92.6958 57.2413 92.7492 57.2769 92.8079 57.3011C92.8666 57.3254 92.9295 57.3378 92.993 57.3377ZM94.9275 56.786C94.9909 56.7859 95.0536 56.7733 95.1121 56.7489C95.1706 56.7246 95.2237 56.6889 95.2684 56.644C95.3131 56.5992 95.3486 56.5459 95.3727 56.4873C95.3969 56.4287 95.4092 56.366 95.4091 56.3026V47.7043C95.4091 47.5764 95.3583 47.4536 95.2678 47.3631C95.1773 47.2727 95.0546 47.2218 94.9266 47.2218C94.7986 47.2218 94.6759 47.2727 94.5854 47.3631C94.495 47.4536 94.4441 47.5764 94.4441 47.7043V56.3026C94.444 56.3661 94.4564 56.429 94.4807 56.4877C94.5049 56.5464 94.5405 56.5998 94.5854 56.6447C94.6303 56.6896 94.6837 56.7252 94.7424 56.7495C94.8011 56.7737 94.864 56.7861 94.9275 56.786ZM101.13 55.405C101.193 55.4051 101.256 55.3927 101.315 55.3684C101.373 55.3441 101.426 55.3085 101.471 55.2636C101.516 55.2186 101.551 55.1653 101.575 55.1066C101.599 55.0479 101.612 54.985 101.611 54.9216V47.7043C101.611 47.5764 101.56 47.4536 101.47 47.3631C101.38 47.2727 101.257 47.2218 101.129 47.2218C101.001 47.2218 100.878 47.2727 100.788 47.3631C100.697 47.4536 100.646 47.5764 100.646 47.7043V54.9216C100.646 54.9851 100.659 55.048 100.683 55.1067C100.707 55.1654 100.743 55.2188 100.788 55.2637C100.833 55.3086 100.886 55.3442 100.945 55.3684C101.003 55.3927 101.066 55.4051 101.13 55.405ZM102.934 54.8515C102.997 54.8519 103.06 54.8397 103.119 54.8156C103.178 54.7916 103.231 54.7561 103.276 54.7114C103.321 54.6666 103.357 54.6134 103.381 54.5548C103.405 54.4962 103.418 54.4334 103.417 54.3699V47.4267C103.418 47.3632 103.405 47.3004 103.381 47.2418C103.357 47.1832 103.321 47.13 103.276 47.0852C103.231 47.0405 103.178 47.005 103.119 46.981C103.06 46.9569 102.997 46.9447 102.934 46.9451C102.871 46.945 102.808 46.9573 102.75 46.9815C102.691 47.0057 102.638 47.0411 102.593 47.0859C102.549 47.1306 102.513 47.1837 102.489 47.2422C102.465 47.3007 102.452 47.3634 102.452 47.4267V54.3699C102.452 54.6367 102.667 54.8515 102.934 54.8515ZM104.741 54.3007C104.805 54.3009 104.868 54.2884 104.926 54.2642C104.985 54.2399 105.038 54.2043 105.083 54.1594C105.128 54.1145 105.164 54.0612 105.188 54.0025C105.212 53.9438 105.225 53.8809 105.225 53.8173V47.1517C105.225 47.0238 105.174 46.9011 105.083 46.8106C104.993 46.7201 104.87 46.6692 104.742 46.6692C104.614 46.6692 104.491 46.7201 104.401 46.8106C104.31 46.9011 104.26 47.0238 104.26 47.1517V53.8173C104.259 53.8807 104.272 53.9436 104.296 54.0022C104.32 54.0608 104.355 54.1141 104.4 54.159C104.445 54.2039 104.498 54.2396 104.556 54.2639C104.615 54.2882 104.678 54.3007 104.741 54.3007ZM106.547 53.7472C106.611 53.7475 106.674 53.7351 106.733 53.7109C106.791 53.6867 106.845 53.6511 106.89 53.6062C106.935 53.5613 106.97 53.5079 106.994 53.4491C107.019 53.3904 107.031 53.3274 107.031 53.2638V46.875C107.031 46.747 106.98 46.6243 106.889 46.5338C106.799 46.4433 106.676 46.3925 106.548 46.3925C106.42 46.3925 106.297 46.4433 106.207 46.5338C106.117 46.6243 106.066 46.747 106.066 46.875V53.2638C106.066 53.5324 106.281 53.7472 106.547 53.7472ZM108.353 53.4723C108.417 53.4724 108.48 53.46 108.539 53.4358C108.597 53.4115 108.651 53.3759 108.695 53.331C108.74 53.2861 108.776 53.2328 108.8 53.1741C108.825 53.1153 108.837 53.0524 108.837 52.9889V46.5982C108.837 46.4703 108.786 46.3476 108.695 46.2571C108.605 46.1666 108.482 46.1157 108.354 46.1157C108.226 46.1157 108.104 46.1666 108.013 46.2571C107.923 46.3476 107.872 46.4703 107.872 46.5982V52.9889C107.872 53.2547 108.088 53.4723 108.353 53.4723ZM115.151 51.6944C115.214 51.6943 115.277 51.6817 115.336 51.6573C115.394 51.633 115.447 51.5973 115.492 51.5524C115.537 51.5076 115.572 51.4543 115.596 51.3957C115.62 51.3371 115.633 51.2744 115.633 51.211V46.0466C115.633 45.9186 115.582 45.7959 115.491 45.7054C115.401 45.6149 115.278 45.5641 115.15 45.5641C115.022 45.5641 114.899 45.6149 114.809 45.7054C114.718 45.7959 114.668 45.9186 114.668 46.0466V51.2101C114.667 51.2737 114.68 51.3367 114.704 51.3955C114.728 51.4543 114.764 51.5077 114.809 51.5528C114.854 51.5978 114.907 51.6334 114.966 51.6578C115.024 51.6821 115.087 51.6945 115.151 51.6944ZM116.974 51.1691C117.037 51.169 117.1 51.1564 117.158 51.132C117.217 51.1077 117.27 51.072 117.314 51.0272C117.359 50.9823 117.395 50.929 117.419 50.8704C117.443 50.8119 117.455 50.7491 117.455 50.6857V45.7698C117.455 45.7065 117.443 45.6439 117.419 45.5854C117.395 45.5269 117.359 45.4738 117.314 45.429C117.27 45.3843 117.216 45.3488 117.158 45.3247C117.099 45.3005 117.037 45.2881 116.974 45.2882C116.91 45.2879 116.847 45.3001 116.789 45.3241C116.73 45.3482 116.676 45.3836 116.632 45.4284C116.587 45.4731 116.551 45.5264 116.527 45.585C116.502 45.6436 116.49 45.7064 116.49 45.7698V50.6857C116.49 50.7492 116.502 50.8121 116.527 50.8708C116.551 50.9296 116.587 50.9829 116.631 51.0278C116.676 51.0727 116.73 51.1083 116.788 51.1326C116.847 51.1568 116.91 51.1692 116.974 51.1691ZM118.796 50.6165C118.859 50.6164 118.922 50.6038 118.981 50.5795C119.039 50.5551 119.092 50.5195 119.137 50.4746C119.182 50.4297 119.217 50.3764 119.241 50.3179C119.265 50.2593 119.278 50.1965 119.278 50.1331V45.494C119.278 45.366 119.227 45.2433 119.136 45.1528C119.046 45.0623 118.923 45.0115 118.795 45.0115C118.667 45.0115 118.544 45.0623 118.454 45.1528C118.364 45.2433 118.313 45.366 118.313 45.494V50.1331C118.313 50.1967 118.325 50.2596 118.349 50.3183C118.373 50.377 118.409 50.4303 118.454 50.4752C118.499 50.5201 118.552 50.5557 118.611 50.58C118.67 50.6042 118.733 50.6167 118.796 50.6165ZM120.617 50.2023C120.68 50.2026 120.743 50.1902 120.802 50.166C120.861 50.1418 120.914 50.1062 120.959 50.0613C121.004 50.0163 121.04 49.963 121.064 49.9042C121.088 49.8454 121.1 49.7825 121.1 49.7189V45.2181C121.1 45.0902 121.049 44.9675 120.959 44.877C120.868 44.7865 120.746 44.7357 120.618 44.7357C120.49 44.7357 120.367 44.7865 120.277 44.877C120.186 44.9675 120.135 45.0902 120.135 45.2181V49.718C120.135 49.7815 120.147 49.8443 120.171 49.903C120.195 49.9617 120.231 50.0151 120.276 50.06C120.32 50.105 120.373 50.1408 120.432 50.1652C120.491 50.1896 120.553 50.2022 120.617 50.2023ZM122.441 49.3466C122.569 49.3466 122.692 49.2957 122.783 49.205C122.874 49.1144 122.925 48.9914 122.925 48.8632V44.9414C122.925 44.8132 122.874 44.6902 122.783 44.5996C122.692 44.5089 122.569 44.458 122.441 44.458C122.313 44.458 122.19 44.5089 122.099 44.5996C122.009 44.6902 121.958 44.8132 121.958 44.9414V48.8632C121.958 49.1299 122.174 49.3466 122.441 49.3466Z" fill="#FAFAFB"/>
<path fill-rule="evenodd" clip-rule="evenodd" d="M134.567 73.2507C135.252 73.9498 135.595 74.7746 135.595 75.7259C135.595 76.7036 135.25 77.543 134.562 78.2439C133.873 78.9395 133.045 79.2863 132.074 79.2863C131.61 79.2937 131.149 79.2054 130.72 79.027C130.292 78.8486 129.904 78.584 129.582 78.2494C128.89 77.5575 128.543 76.7164 128.543 75.7268C128.543 74.7718 128.883 73.9471 129.564 73.2516C130.256 72.5406 131.093 72.1846 132.074 72.1846C133.045 72.1837 133.875 72.5397 134.567 73.2507ZM135.095 72.7054C134.261 71.8715 133.253 71.4536 132.074 71.4536C130.951 71.4536 129.97 71.8396 129.135 72.6125C128.246 73.4391 127.801 74.4778 127.801 75.7259C127.801 76.9276 128.212 77.9417 129.035 78.7647C129.858 79.5876 130.872 80 132.074 80C133.236 80 134.234 79.5985 135.066 78.7929C135.92 77.9626 136.348 76.9403 136.348 75.7259C136.349 74.547 135.931 73.5411 135.095 72.7054ZM132.602 75.4027C132.44 75.5183 132.213 75.5748 131.923 75.5748H131.444V74.202H131.744C132.054 74.202 132.294 74.2338 132.464 74.2994C132.718 74.4004 132.846 74.5807 132.846 74.8383C132.846 75.0987 132.765 75.2853 132.602 75.4027ZM131.444 76.4287H131.703L131.977 76.4451C132.166 76.4578 132.308 76.4824 132.4 76.5215C132.481 76.5501 132.553 76.5962 132.613 76.6565C132.673 76.7169 132.719 76.7899 132.747 76.8702C132.786 76.9694 132.811 77.1634 132.824 77.4501C132.835 77.7341 132.859 77.9535 132.898 78.1047H134.081L134.042 77.9717C134.025 77.9253 134.015 77.8789 134.01 77.8334C134.004 77.7879 134.001 77.7405 134.001 77.695V77.2717C134.001 76.7883 133.861 76.4342 133.583 76.2102C133.432 76.0891 133.208 76.0008 132.911 75.938C133.234 75.9025 133.508 75.796 133.73 75.6176C133.953 75.4391 134.064 75.1515 134.064 74.7536C134.064 74.2329 133.853 73.856 133.432 73.623C133.185 73.4883 132.874 73.4081 132.499 73.379C132.173 73.3743 131.848 73.3719 131.523 73.3717C130.936 73.3681 130.497 73.3681 130.204 73.3681V78.1047H131.445L131.444 76.4287Z" fill="#C7C8D3"/>
</svg>
