<svg width="305" height="50" viewBox="0 0 305 50" fill="none" xmlns="http://www.w3.org/2000/svg">
<path fill-rule="evenodd" clip-rule="evenodd" d="M198.737 4.35563C199.323 4.35563 200.356 4.49867 200.356 3.56719C200.356 2.83282 199.763 2.73863 199.133 2.73863H197.856V4.35563H198.737ZM200.89 6.89889H200.204L198.885 4.79171H197.853V6.89889H197.267V2.34615H199.273C199.712 2.34615 200.052 2.40022 200.399 2.59036C200.693 2.74037 200.886 3.13459 200.886 3.57068C200.886 4.50216 200.249 4.79347 199.517 4.79347L200.89 6.89889ZM202.358 4.60159C202.354 3.66789 201.981 2.7736 201.321 2.11336C200.661 1.45313 199.767 1.08039 198.833 1.07626C196.874 1.07626 195.219 2.64443 195.219 4.60159C195.219 6.60585 196.874 8.21762 198.833 8.21762C200.743 8.21588 202.358 6.60585 202.358 4.60159ZM194.776 4.60159C194.775 4.0706 194.88 3.54477 195.084 3.05463C195.289 2.56449 195.588 2.11977 195.966 1.74625C196.343 1.37273 196.791 1.07786 197.283 0.878708C197.775 0.679557 198.302 0.580096 198.833 0.586098C201.089 0.586098 202.897 2.40022 202.897 4.60159C202.897 6.8518 201.089 8.70604 198.833 8.70604C196.536 8.70604 194.776 6.8518 194.776 4.60159ZM300.602 4.35563C301.195 4.35563 302.221 4.49867 302.221 3.56719C302.221 2.83282 301.58 2.73863 301.045 2.73863H299.726V4.35563H300.602ZM302.711 6.89889H302.071L300.705 4.79171H299.726V6.89889H299.187V2.34615H301.146C301.535 2.34615 301.879 2.40022 302.268 2.59036C302.615 2.74037 302.758 3.13459 302.758 3.57068C302.758 4.50216 302.125 4.79347 301.338 4.79347L302.711 6.89889ZM304.223 4.60159C304.223 2.64443 302.662 1.07626 300.656 1.07626C300.192 1.07464 299.733 1.16473 299.305 1.34132C298.876 1.51791 298.487 1.77752 298.159 2.1052C297.832 2.43288 297.572 2.82216 297.396 3.2506C297.219 3.67904 297.129 4.13819 297.131 4.60159C297.131 6.60585 298.7 8.21762 300.656 8.21762C302.662 8.21588 304.223 6.60585 304.223 4.60159ZM296.639 4.60159C296.639 2.40022 298.352 0.586098 300.656 0.586098C302.904 0.586098 304.713 2.40022 304.713 4.60159C304.713 6.8518 302.904 8.70604 300.656 8.70604C298.352 8.70604 296.639 6.8518 296.639 4.60159ZM58.7095 41.9306C57.3005 41.9357 55.9045 41.6619 54.6018 41.125C53.2991 40.5881 52.1156 39.7987 51.1193 38.8023C50.1231 37.8059 49.3339 36.6222 48.7972 35.3195C48.2605 34.0167 47.9869 32.6206 47.9923 31.2116C47.9918 29.8045 48.2688 28.4111 48.8073 27.1111C49.3458 25.8111 50.1354 24.63 51.1308 23.6354C52.1262 22.6408 53.3079 21.8522 54.6083 21.3148C55.9088 20.7773 57.3024 20.5015 58.7095 20.5031C60.116 20.5024 61.5088 20.7789 62.8083 21.3168C64.1079 21.8547 65.2886 22.6435 66.2832 23.638C67.2777 24.6325 68.0664 25.8133 68.6043 27.1128C69.1423 28.4123 69.4188 29.8052 69.4181 31.2116C69.4238 32.62 69.1509 34.0156 68.6149 35.318C68.0789 36.6204 67.2905 37.8039 66.2951 38.8002C65.2997 39.7966 64.117 40.5862 62.8151 41.1234C61.5132 41.6607 60.1179 41.935 58.7095 41.9306ZM18.4866 41.9306C12.568 41.9306 7.8234 37.1878 7.8234 31.2116C7.8234 25.293 12.568 20.5031 18.4866 20.5031C24.4052 20.5031 29.2039 25.293 29.2039 31.2116C29.2087 32.6205 28.9348 34.0164 28.398 35.3189C27.8611 36.6215 27.0719 37.805 26.0758 38.8013C25.0796 39.7976 23.8962 40.587 22.5938 41.1241C21.2913 41.6611 19.8955 41.9352 18.4866 41.9306ZM153.33 41.9306C147.411 41.9306 142.668 37.1878 142.668 31.2116C142.668 25.293 147.411 20.5031 153.33 20.5031C159.2 20.5031 164 25.293 164 31.2116C164.006 32.6168 163.735 34.0094 163.201 35.3094C162.668 36.6094 161.883 37.7912 160.891 38.7871C159.9 39.783 158.722 40.5734 157.424 41.1128C156.126 41.6523 154.735 41.9302 153.33 41.9306ZM112.673 41.9306C111.263 41.9392 109.865 41.6678 108.561 41.1321C107.257 40.5965 106.072 39.8072 105.075 38.8101C104.078 37.813 103.289 36.6279 102.753 35.3236C102.218 34.0192 101.947 32.6216 101.955 31.2116C101.951 29.8035 102.226 28.4085 102.763 27.107C103.301 25.8054 104.09 24.623 105.086 23.6277C106.082 22.6324 107.265 21.844 108.567 21.3077C109.869 20.7715 111.265 20.498 112.673 20.5031C114.08 20.5021 115.473 20.7784 116.773 21.3162C118.073 21.8539 119.255 22.6425 120.25 23.6369C121.245 24.6314 122.035 25.8122 122.574 27.1119C123.112 28.4116 123.39 29.8047 123.39 31.2116C123.395 32.6204 123.121 34.0162 122.584 35.3186C122.047 36.6211 121.257 37.8045 120.261 38.8008C119.265 39.797 118.082 40.5864 116.78 41.1236C115.477 41.6607 114.081 41.935 112.673 41.9306ZM69.4739 45.9461C66.3592 48.2482 62.5843 49.4829 58.7113 49.4662C48.6272 49.4662 40.4584 41.2957 40.4584 31.2116C40.4584 21.1816 48.6272 13.0146 58.7113 13.0146C62.7198 13.0146 66.437 14.3333 69.4198 16.5347V1.51757H77.3496V49.1749H69.4739V45.9461ZM196.782 24.6616C196.339 21.6718 193.94 19.5245 190.129 19.5245C188.123 19.5245 183.769 20.2048 183.769 22.7986C183.769 26.6658 190.375 27.006 191.986 27.1072C202.559 28.0858 205.638 32.7344 205.638 38.2117C205.638 42.2725 203.583 45.3042 200.651 47.4585C198.156 49.2674 193.019 50 189.885 50C182.935 50 175.893 46.1903 174.962 37.5715H182.743C183.176 41.6358 187.437 43.1517 189.836 43.1517C194.186 43.1517 197.27 41.2957 197.27 39.1414C197.27 35.7173 194.092 34.9812 189.489 34.4945C186.903 34.2014 181.953 33.3188 179.902 31.6058C177.606 29.7969 175.647 27.7386 175.647 24.2185C175.647 17.9057 180.587 12.9169 190.328 12.8628C198.399 12.8157 204.514 17.6144 204.705 24.6058L196.782 24.6616ZM29.251 45.9461C26.1365 48.2499 22.3605 49.4847 18.4866 49.4662C8.36066 49.4662 0.287811 41.2957 0.287811 31.2116C0.287811 21.1816 8.36066 13.0146 18.4866 13.0146C22.5021 13.0146 26.2193 14.3333 29.251 16.5347V13.0634H37.0779V49.1749H29.251V45.9461ZM90.9468 10.5673V1.46873H83.0711V10.5673H90.9468ZM90.9468 49.1732V13.0617H83.0711V49.1732H90.9468ZM164 45.9461C161.063 48.1946 157.347 49.4662 153.33 49.4662C143.253 49.4662 135.084 41.2957 135.084 31.2116C135.084 21.1816 143.253 13.0146 153.33 13.0146C157.347 13.0146 161.064 14.3333 164 16.5347V13.0634H171.921V49.1749H164.096L164 45.9461ZM123.437 45.9461C120.454 48.1946 116.69 49.4662 112.673 49.4662C102.643 49.4662 94.4268 41.2957 94.4268 31.2116C94.4268 21.1816 102.643 13.0146 112.673 13.0146C116.69 13.0146 120.407 14.3333 123.437 16.5347V1.51757H131.266V49.1749H123.437V45.9461ZM266.505 27.1072C266.945 18.5442 264.396 9.14736 257.544 0C250.895 8.56301 248.55 18.3 249.133 27.1072H266.505ZM250.159 33.9031C249.866 32.6261 249.621 31.3385 249.426 30.0429H266.208C266.017 31.3391 265.772 32.6269 265.476 33.9031H250.159ZM254.073 43.5965C255.151 45.3896 256.395 47.0769 257.79 48.6359C259.163 47.1166 260.386 45.4019 261.514 43.5965H254.073ZM292.681 27.1543C294.636 23.0917 296.009 18.5442 296.64 13.4542C285.245 14.4345 276.291 19.9588 270.268 27.1543H292.681ZM291.163 30.0429C290.38 31.4087 289.544 32.6315 288.669 33.9031L265.814 33.8072C266.547 32.5844 267.283 31.2116 268.117 30.0429H291.163ZM282.159 40.659C283.591 39.49 284.931 38.2135 286.169 36.8406L229.413 36.7935C230.691 38.2079 232.081 39.5169 233.57 40.7079L282.159 40.659ZM262.345 43.5965C262.008 45.2222 261.812 46.8737 261.759 48.533C267.189 48.2905 272.814 46.6247 277.904 43.5965H262.345ZM224.426 30.0429C225.255 31.4087 226.088 32.6315 227.022 33.9031H249.773C249.133 32.5844 248.353 31.3145 247.514 30.0429H224.426ZM237.73 43.5965C242.82 46.6247 248.4 48.2905 253.829 48.533C253.768 46.8769 253.589 45.2272 253.293 43.5965H237.73ZM245.313 27.1543C239.347 19.9588 230.446 14.4345 219.041 13.4542C219.621 18.192 220.925 22.8127 222.909 27.1543H245.313Z" fill="#C7C8D3"/>
</svg>
