<svg width="157" height="80" viewBox="0 0 157 80" fill="none" xmlns="http://www.w3.org/2000/svg">
<path d="M20.2528 26.9076L21.1742 27.1378C14.3425 42.3 14.8025 57.3078 34.6477 57.3078C68.2346 48.7483 68.2346 48.7483 91.0729 42.3762C86.8508 42.3 82.6287 42.2226 78.4449 42.1464C77.7921 37.7324 77.1397 33.3179 76.5256 28.9035L71.689 41.8004C68.4261 41.9158 65.1633 42.0311 61.9008 42.1456C66.6221 28.1737 71.3438 14.2401 76.0651 0.306452C79.4428 0.344759 82.8206 0.383066 86.1984 0.460078C83.4347 8.78936 83.4347 8.78936 83.7424 9.24984C86.2762 6.33255 88.8479 3.41527 91.4188 0.497985C101.129 0.307251 110.841 0.153226 120.552 0C119.823 2.49471 119.131 4.98983 118.441 7.48494C114.948 7.67687 111.455 7.8688 108 8.06074C105.851 14.4324 105.851 14.4324 105.736 15.8529C108.806 16.0449 111.877 16.2368 114.987 16.467L112.222 24.1822C108.845 24.4895 105.467 24.7967 102.128 25.1036C101.168 27.9821 100.207 30.8611 99.2868 33.7784L108.845 34.124C108.5 35.2372 108.154 36.3884 107.808 37.5404C108.46 37.5404 109.113 37.5404 109.804 37.5787C125.273 33.4715 140.78 29.4027 156.288 25.3342C117.02 42.3766 77.7534 59.4195 38.4852 76.5006C-8.04214 91.7937 -8.72886 53.5981 20.2528 26.9076ZM22.479 42.1464L36.8735 0H47.506L47.7362 15.3154C49.5402 10.2869 51.3446 5.29708 53.1482 0.30725C56.2187 0.191932 59.3279 0.0766131 62.4367 0C57.7921 14.0485 53.1861 28.0975 48.5797 42.1464H37.909C37.7941 37.1945 37.6787 32.2429 37.6017 27.3301C33.3405 38.9602 33.3405 38.9602 32.5728 42.1464H22.479ZM50.193 42.1464C54.9143 28.2128 59.6739 14.2792 64.4335 0.383465H74.5671C69.6539 14.1635 64.779 27.9438 59.9041 41.7238C56.6417 41.8391 53.4175 41.9928 50.193 42.1464ZM88.0399 37.8852C86.1593 21.879 86.1593 21.879 86.1593 18.1557C99.6711 2.4181 99.6711 2.4181 100.592 2.07254L88.0399 37.8852Z" fill="#C7C8D3"/>
</svg>
