<svg width="173" height="80" viewBox="0 0 173 80" fill="none" xmlns="http://www.w3.org/2000/svg">
<path fill-rule="evenodd" clip-rule="evenodd" d="M139.043 60.4396C136.534 58.684 133.275 57.6795 129.26 57.6795C125.499 57.6795 122.24 58.684 119.483 60.4396C116.723 62.6938 115.218 65.4557 115.218 68.9651C115.218 72.4763 116.723 74.9839 119.483 77.2399C122.24 78.9955 125.5 80 129.26 80C133.275 80 136.534 78.9955 139.043 77.2399C142.052 74.9839 143.306 72.4763 143.306 68.9651C143.305 65.4557 142.052 62.6938 139.043 60.4396ZM129.259 63.9489C131.017 63.9489 132.27 64.4512 133.524 65.2023C134.529 66.2068 135.28 67.2076 135.28 68.4628C135.529 71.974 133.524 73.7296 129.259 73.7296C127.504 73.7296 126.001 73.2274 124.747 72.2228C123.743 71.2202 123.242 69.9668 123.242 68.4619C123.491 67.2067 123.995 66.2059 124.996 65.2014C126.25 64.4512 127.504 63.9489 129.259 63.9489ZM171.391 58.4306H162.363L153.587 66.7091V51.6625H145.31V79.4977H153.587V68.2121L161.861 79.4977H172.395L161.612 67.4601L171.391 58.4306ZM70.8296 58.1817C66.5655 58.1817 63.3068 59.1862 60.7983 60.9382C58.2907 62.9472 57.0364 65.4557 56.7858 68.9651C56.7858 75.735 61.5503 79.248 71.3319 79.4977H83.6201V73.7305H71.8323C68.5727 73.478 66.3158 72.726 65.5628 71.222C64.5602 69.7171 64.5602 68.2131 65.3122 66.71C66.3158 64.9544 68.3211 63.9499 70.8296 63.9499H75.8448L70.3274 71.222H78.1018L83.6192 64.2015V58.1826L70.8296 58.1817ZM94.6532 51.6625H86.1268V79.248H101.674C105.187 79.248 107.943 78.2435 109.95 76.2372C112.208 74.4816 113.211 71.974 113.462 68.9651C113.462 62.9463 110.955 59.6848 105.939 58.684L98.9183 58.4315L95.1555 63.9499H98.416C103.432 63.9499 105.688 65.4566 105.688 68.966C105.437 71.9749 103.181 73.7305 98.9183 73.7305H94.6532V51.6625ZM0.611206 51.6625V79.248H9.13761V57.9301H17.1627C18.9174 58.4306 20.1716 59.4351 19.9219 61.4395C19.9219 62.6928 19.4196 63.6974 18.4169 63.948L10.3919 64.6991L19.1689 79.4959H29.4509L20.9245 67.9615C26.1913 67.709 28.6989 64.9525 28.1967 59.9364C28.1967 57.1763 26.9424 55.17 24.6864 53.6669C22.6792 52.4136 20.1716 51.6616 17.1627 51.6616L0.611206 51.6625Z" fill="#C7C8D3"/>
<path fill-rule="evenodd" clip-rule="evenodd" d="M42.7419 58.1817C38.4787 58.1817 35.2191 59.1862 32.7106 60.9382C30.2029 62.6938 28.9487 65.4557 28.9487 68.7144C28.6989 75.735 33.4635 79.2489 42.9925 79.2489H55.5315V73.7305H43.7464C40.4849 73.478 38.2289 72.726 37.4769 71.222C36.4733 69.7171 36.4733 68.2131 37.2263 66.71C38.2289 64.9544 40.2343 63.9499 42.7428 63.9499H47.758L42.2415 71.222H50.0159L55.5324 63.9499V58.1827L42.7419 58.1817ZM87.3811 7.52373L100.42 15.5488L121.234 7.77532C128.258 5.51838 137.286 3.00986 148.069 0C121.488 2.25785 101.425 4.51387 87.3811 7.52373ZM77.3507 16.0511L65.8144 13.0412C59.2943 14.7977 53.0248 17.5551 47.2576 21.0672C41.4885 24.5765 36.9756 28.5909 33.9657 32.8541H53.5271C55.032 30.5963 57.5396 28.0877 60.7992 25.5801C65.5628 21.5685 71.0812 18.5587 77.3507 16.0511ZM91.1439 20.8147L81.3632 17.5541C79.1054 18.5587 76.348 19.812 73.0865 22.068C68.5727 25.0779 64.5601 28.8397 61.0499 32.8541H79.356C81.8636 28.8397 85.8762 24.8281 91.1439 20.8147ZM68.8243 0H29.7025L68.8233 10.5336C86.1268 15.7986 102.176 21.8192 116.975 28.0877L68.8243 0Z" fill="#C7C8D3"/>
</svg>
