<svg width="33" height="40" viewBox="0 0 33 40" fill="none" xmlns="http://www.w3.org/2000/svg">
<path d="M31.7392 13.6386C31.5492 13.7558 27.3704 16.1887 27.4179 21.2502C27.4704 27.3042 32.725 29.3203 32.7854 29.3431C32.7383 29.4873 31.9453 32.2146 30.0156 35.0312C28.3479 37.4713 26.6203 39.8976 23.8937 39.9483C21.2149 39.9974 20.3515 38.3589 17.2913 38.3589C14.2293 38.3589 13.2709 39.8976 10.7377 39.9974C8.10588 40.0969 6.10221 37.3623 4.42222 34.9356C0.987821 29.9693 -1.63804 20.9005 1.88788 14.7804C3.63834 11.7409 6.76709 9.81531 10.1618 9.76557C12.7472 9.71671 15.1854 11.5036 16.7668 11.5036C18.3257 11.5036 21.1194 9.42059 24.4126 9.66421C25.7032 9.75986 29.3672 10.1451 31.7392 13.6386ZM22.3806 6.38578C23.7792 4.69547 24.7202 2.34142 24.4611 0C22.4481 0.0798279 20.0136 1.34084 18.5698 3.03008C17.2768 4.52649 16.1413 6.92314 16.4496 9.21677C18.6933 9.39013 20.9832 8.07714 22.3806 6.38578Z" fill="#0A0E00"/>
</svg>
