<svg width="1397" height="478" viewBox="0 0 1397 478" fill="none" xmlns="http://www.w3.org/2000/svg">
<g filter="url(#filter0_dd_21_452)">
<path d="M1296.36 413.605C1259.34 334.603 1180.72 265.108 1072.5 215.711C964.281 166.315 832.387 139.728 696.925 140.002C561.464 140.276 429.866 167.397 322.191 217.231C214.516 267.065 136.67 336.877 100.521 416.027L108.195 417.315C143.881 339.18 220.728 270.263 327.022 221.068C433.317 171.874 563.227 145.101 696.952 144.83C830.677 144.559 960.88 170.805 1067.71 219.568C1174.55 268.331 1252.15 336.936 1288.7 414.924L1296.36 413.605Z" fill="url(#paint0_linear_21_452)" fill-opacity="0.5" shape-rendering="crispEdges"/>
</g>
<defs>
<filter id="filter0_dd_21_452" x="0.520599" y="0" width="1395.84" height="477.315" filterUnits="userSpaceOnUse" color-interpolation-filters="sRGB">
<feFlood flood-opacity="0" result="BackgroundImageFix"/>
<feColorMatrix in="SourceAlpha" type="matrix" values="0 0 0 0 0 0 0 0 0 0 0 0 0 0 0 0 0 0 127 0" result="hardAlpha"/>
<feOffset dy="-30"/>
<feGaussianBlur stdDeviation="32.5"/>
<feComposite in2="hardAlpha" operator="out"/>
<feColorMatrix type="matrix" values="0 0 0 0 1 0 0 0 0 1 0 0 0 0 1 0 0 0 0.6 0"/>
<feBlend mode="normal" in2="BackgroundImageFix" result="effect1_dropShadow_21_452"/>
<feColorMatrix in="SourceAlpha" type="matrix" values="0 0 0 0 0 0 0 0 0 0 0 0 0 0 0 0 0 0 127 0" result="hardAlpha"/>
<feOffset dy="-40"/>
<feGaussianBlur stdDeviation="50"/>
<feComposite in2="hardAlpha" operator="out"/>
<feColorMatrix type="matrix" values="0 0 0 0 1 0 0 0 0 1 0 0 0 0 1 0 0 0 0.6 0"/>
<feBlend mode="normal" in2="effect1_dropShadow_21_452" result="effect2_dropShadow_21_452"/>
<feBlend mode="normal" in="SourceGraphic" in2="effect2_dropShadow_21_452" result="shape"/>
</filter>
<linearGradient id="paint0_linear_21_452" x1="699" y1="140" x2="699" y2="373.5" gradientUnits="userSpaceOnUse">
<stop stop-color="#D0D0D0"/>
<stop offset="1" stop-color="#E1DBDB" stop-opacity="0"/>
</linearGradient>
</defs>
</svg>
