<svg width="41" height="40" viewBox="0 0 41 40" fill="none" xmlns="http://www.w3.org/2000/svg">
<path d="M4.5354 4.64778V35.3509C4.53561 35.4175 4.55547 35.4826 4.59251 35.538C4.62955 35.5933 4.68211 35.6365 4.7436 35.6621C4.80509 35.6878 4.87278 35.6946 4.93817 35.6819C5.00356 35.6692 5.06375 35.6375 5.11118 35.5908L21.0979 20.0001L5.11118 4.40794C5.06375 4.36117 5.00356 4.32945 4.93817 4.31675C4.87278 4.30405 4.80509 4.31094 4.7436 4.33656C4.68211 4.36217 4.62955 4.40537 4.59251 4.46074C4.55547 4.5161 4.53561 4.58117 4.5354 4.64778Z" fill="#0A0E00"/>
<path d="M27.801 13.594L7.75572 2.55023L7.74322 2.5432C7.39791 2.3557 7.06979 2.82289 7.3526 3.09476L23.0659 18.1198L27.801 13.594Z" fill="#0A0E00"/>
<path d="M7.35413 36.9055C7.06975 37.1773 7.39788 37.6445 7.74475 37.457L7.75725 37.45L27.801 26.4063L23.0658 21.8789L7.35413 36.9055Z" fill="#0A0E00"/>
<path d="M35.8932 18.0467L30.2956 14.9639L25.0323 19.9998L30.2956 25.0334L35.8932 21.9529C37.4159 21.1115 37.4159 18.8881 35.8932 18.0467Z" fill="#0A0E00"/>
</svg>
